<?xml version="1.0" encoding="utf-8"?>
<!-- Generator: Adobe Illustrator 12.0.0, SVG Export Plug-In . SVG Version: 6.00 Build 51448)  -->
<!DOCTYPE svg PUBLIC "-//W3C//DTD SVG 1.1//EN" "http://www.w3.org/Graphics/SVG/1.1/DTD/svg11.dtd" [
	<!ENTITY ns_svg "http://www.w3.org/2000/svg">
	<!ENTITY ns_xlink "http://www.w3.org/1999/xlink">
]>
<svg  version="1.1" id="Calque_1" xmlns="&ns_svg;" xmlns:xlink="&ns_xlink;" width="247.5" height="474.064"
	 viewBox="0 0 247.5 474.064" overflow="visible" enable-background="new 0 0 247.5 474.064" xml:space="preserve">
<g>
	<defs>
		<rect id="XMLID_10_" y="0.089" width="247.5" height="473.971"/>
	</defs>
	<clipPath id="XMLID_12_">
		<use xlink:href="#XMLID_10_" />
	</clipPath>
	<path clip-path="url(#XMLID_12_)" d="M76.008,0c-0.514,0-0.861,0.083-1.402,0.248c-1.62,0.493-3.015,1.208-3.066,1.558
		c-0.045,0.306,0.687,0.606,1.824,0.772c0.611,0.065,0.474,0.117-0.632,0.266c-1.707,0.194-4.774,1.042-6.754,1.873
		c-1.976,0.809-8.236,5.332-9.342,6.723c-0.953,1.23-2.458,4.131-2.954,5.765c-1.281,4.212-2.625,7.064-4.239,9.111
		c-0.347,0.429-1.944,1.657-3.568,2.703c-6.33,4.117-7.7,5.19-8.398,6.446c-0.594,1.069-0.323,2.229,0.652,2.978
		c1.304,0.966,3.958,1.44,7.136,1.446c1.246,0.003,2.572-0.067,3.929-0.207h0.003c0.175,1.413,0.62,2.75,1.354,3.833
		c1.065,1.521,1.895,4.155,2.195,6.944c0.421,4.208,2.971,10.947,5.396,14.393c1.361,1.975,2.543,3.749,2.544,3.951
		c0.001,0.557,4.373,3.898,6.203,4.656c0.946,0.455,2.717,1.416,3.839,2.175s2.54,1.518,3.131,1.668
		c0.531,0.202,1.003,0.556,1.004,0.81c0.001,0.406-8.193,4.118-9.078,4.12c-0.177,0-1.769,0.56-3.538,1.272
		c-1.768,0.712-3.479,1.272-3.773,1.272c-0.944,0.001-2.238,2.133-3.059,4.973c-0.88,2.891-0.282,6.998,1.435,10.037
		c0.651,1.115,0.713,2.534,0.366,6.135c-0.231,2.535-0.641,4.868-0.817,5.172c-0.235,0.305-0.406,3.296-0.4,6.643
		c0.068,4.766-0.106,6.186-0.755,6.39c-0.472,0.152-1.179,1.015-1.531,1.878c-0.411,0.913-0.94,2.08-1.175,2.638
		c-1.646,3.602-3.521,9.791-3.519,11.717c0.002,0.738-0.08,1.118-0.497,1.117c-0.442,0-1.258-0.43-2.749-1.315
		c-2.599-1.518-4.729-4.607-6.449-9.473c-0.652-1.673-1.6-4.206-2.193-5.675c-0.711-1.622-0.95-3.244-0.716-4.461
		c0.233-1.167-0.124-2.991-0.895-5.221c-0.711-1.875-1.542-4.308-1.839-5.423c-0.475-1.418-1.362-2.533-3.135-3.747
		c-1.417-0.962-3.308-2.582-4.313-3.645c-0.946-1.063-2.069-1.923-2.423-1.975c-0.001,0-0.004,0-0.006,0
		c-1.235-0.002-1.944-1.269-2.48-4.255c-0.174-0.892-0.286-1.509-0.322-1.929h-0.003c4.599-0.273,8.615-1.79,12.051-4.548
		c3.766-3.2,5.735-7.067,5.906-11.599c0.027-4.536-1.765-8.462-5.377-11.78c-3.699-3.212-8.192-4.895-13.478-5.048h-0.012
		c-5.312,0.007-9.854,1.531-13.625,4.574c-3.773,3.195-5.75,7.059-5.931,11.591C0.5,82.082,2.285,86.01,5.889,89.333
		c2.857,2.49,6.19,4.064,10,4.724h-0.002c0.515,0.668,0.6,1.482,0.604,3.401c0.003,2.333-0.289,3.499-1.172,4.514
		c-0.648,0.762-1.528,2.994-1.997,4.972c-0.761,3.196-0.935,5.274-0.862,12.069c0.001,0.812,0.239,1.875,0.594,2.382
		c0.828,1.367,4.952,3.486,6.726,3.489c0.002,0,0.005,0,0.007,0c0.006,0,0.013,0,0.019,0c1.281,0.002,1.583,0.427,3.294,5.167
		c1.008,2.888,3.083,8.057,4.565,11.502c2.607,6.183,2.666,6.386,2.022,9.175c-0.937,3.906-0.876,4.767,0.725,9.126
		c2.427,6.726,4.317,9.111,7.315,9.117c0.005,0,0.011,0,0.018,0c0.002,0,0.006,0,0.009,0c1.713,0.003,4.832,1.514,4.833,2.326
		c0.004,2.479,10.075,7.778,14.804,7.787c0.006,0,0.013,0,0.02,0c2.242-0.005,2.772-0.31,7.249-4.22
		c7.363-6.297,11.481-12.64,14.473-22.176c0.41-1.268,0.938-2.739,1.174-3.297c0.294-0.558,1.234-2.639,2.115-4.618l1.646-3.602
		l2.423,2.126c1.3,1.113,3.664,2.986,5.317,4.049c1.595,1.113,3.426,2.378,4.018,2.783c0.65,0.405,2.304,1.67,3.781,2.733
		c2.659,2.024,2.659,2.024,2.369,4.813c-0.29,2.84-0.699,4.919-2.455,12.478c-0.467,2.231-1.403,6.796-1.987,10.143
		c-0.643,3.348-1.579,7.657-2.106,9.636c-1.172,4.263-2.568,15.265-2.617,20.641c0.006,2.838,0.363,4.512,1.251,6.336
		c1.125,2.229,1.247,3.952,1.808,20.432c0.372,9.886,0.864,20.481,1.164,23.574c0.301,3.042,0.724,8.314,0.966,11.66
		c0.423,6.123,1.074,7.852,3.012,7.854c0.003,0,0.007,0,0.011,0c0.001,0,0.003,0,0.004,0c0.411,0.002,0.763,0.203,0.764,0.506
		c0,0.253,0.352,0.506,0.822,0.506c0.002,0,0.003,0,0.004,0h0.001c0.473,0.002,1.241,1.116,1.774,2.686
		c0.831,2.28,2.786,6.639,4.503,10.236c0.296,0.557,0.653,2.026,0.831,3.294c0.958,7.098,4.526,22.354,5.651,24.531
		c1.894,3.497,2.314,6.792,2.395,19.062c0.012,5.983,0.317,12.118,0.675,13.639c0.297,1.47,0.598,3.953,0.6,5.475
		c0.005,2.738,0.304,4.867,2.45,16.12c0.655,3.396,1.428,7.959,1.787,10.139c0.299,2.229,0.837,5.321,1.133,6.843
		c3.693,17.943,4.364,30.162,2.136,37.771c-0.469,1.675-1.465,5.225-2.11,7.862l-1.229,4.818l-6.538,5.687
		c-3.653,3.149-7.186,6.703-7.892,7.922c-1.882,3.146-2.346,7.253-1.104,9.482c2.357,4.234,3.188,5.058,5.638,5.063
		c0.012,0,0.024,0,0.036,0c0.002,0,0.005,0,0.007,0c0.834,0.001,3.602,0.452,6.189,1.005c3.655,0.802,6.015,0.972,15.241,0.989
		c1.208,0.001,2.533,0.001,3.995,0c7.965-0.012,15.339-0.274,16.343-0.53c2.005-0.459,3.655-1.627,3.653-2.489
		c0-0.304,0.644-2.282,1.467-4.414c0.822-2.13,1.467-4.767,1.465-5.833c-0.003-1.063,0.291-2.078,0.585-2.23
		c0.354-0.153,0.588-0.863,0.588-1.521c-0.002-0.659,0.174-1.319,0.468-1.421c0.007-0.004,0.013-0.005,0.02-0.005
		c0.229,0,0.458,2.732,0.523,6.14c0.125,3.497,0.307,6.438,0.426,6.591c0.058,0.032,0.216,0.049,0.447,0.049
		c0.479,0.002,1.274-0.067,2.148-0.205l2.301-0.307l0.279-8.976c0.281-7.353,0.513-9.532,1.57-11.968
		c0.646-1.623,1.588-3.349,2.058-3.806c2.592-2.438,4.284-12.986,2.685-16.532c-0.355-0.762-2.189-3.243-4.199-5.571l-3.548-4.255
		l0.284-5.477c0.113-2.991,0.518-7.099,0.811-9.026c0.291-1.978,0.99-7.1,1.571-11.409c0.523-4.312,1.221-9.585,1.572-11.665
		c0.291-2.078,0.689-9.735,0.854-16.986c0.325-15.211,0.325-15.159-5.189-30.211c-2.194-5.929-3.502-11.556-4.103-17.538
		c-0.841-7.706-0.847-11.306-0.08-11.307c0.354,0,0.588-1.115,0.585-2.435c-0.007-3.701,2.869-11.817,4.812-13.493
		c0.532-0.457,1.591-0.814,2.418-0.814c2.597-0.004,3.243-1.272,5.703-11.162c0.234-0.965,0.879-3.095,1.407-4.718
		c3.344-10.348,10.907-36.217,10.904-37.384c-0.002-1.063,2.758-8.216,11.684-30.286l5.404-13.341l-1.656-2.583
		c-0.889-1.47-2.189-3.141-2.899-3.798c-0.65-0.608-1.714-2.078-2.365-3.192c-0.592-1.165-1.301-2.077-1.538-2.077l0,0l0,0
		c-0.296,0-0.472-0.354-0.473-0.81c0-0.456-0.473-1.166-1.005-1.52c-1.832-1.215,0.527-2.231,5.188-2.239
		c6.784-0.008,7.08-0.111,11.791-4.529c0.59-0.608,1.118-1.369,1.118-1.726c0-0.302,0.529-1.165,1.118-1.825
		c0.694-0.8,1.01-1.074,2.724-1.07c0.9,0.001,2.188,0.079,4.118,0.199c1.131,0.062,2.113,0.096,2.96,0.098
		c3.927,0.007,5.003-0.692,5-2.694c-0.001-0.608,0.292-1.168,0.588-1.168c0.354,0,0.588-1.166,0.585-2.585
		c-0.005-2.536,1.754-8.876,2.93-10.703c0.354-0.508,0.588-1.319,0.586-1.877c-0.002-0.558,0.352-1.318,0.764-1.674
		c0.706-0.609,1.937-5.479,4.216-17.143c0.701-3.448,0.877-4.006,1.761-4.769c0.944-0.762,1.764-3.5,2.64-8.42
		c0.234-1.521,0.761-3.854,1.171-5.173c1.113-3.804,0.515-8.316-1.555-11.152c-0.947-1.316-2.01-2.43-2.364-2.431l0,0
		c-0.002,0-0.002,0-0.002,0c-0.355,0-1.654-0.759-2.952-1.669c-1.241-0.911-3.249-2.075-4.37-2.529
		c-1.123-0.506-2.48-1.062-2.954-1.314c-2.646-1.208-3.595-1.564-4.419-1.565c-0.003,0-0.005,0-0.008,0c-0.002,0-0.003,0-0.005,0
		c-0.47-0.001-0.88-0.253-0.882-0.506c0-0.304-0.41-0.505-0.88-0.506c-0.001,0-0.003,0-0.005,0s-0.003,0-0.003,0
		c-1.186-0.002-5.015-1.617-5.015-2.123c-0.001-0.202-0.41-0.404-0.88-0.405c-0.001,0-0.003,0-0.005,0s-0.003,0-0.005,0
		c-0.474,0-1.474-0.252-2.24-0.606c-0.708-0.303-1.713-0.707-2.184-0.909c-0.472-0.203-2.184-0.961-3.719-1.668
		c-2.098-1.047-3.62-1.356-6.155-1.36c-0.033,0-0.068,0-0.103,0c-0.063,0-0.126,0-0.189,0c-2.847-0.005-3.513-0.231-5.595-1.766
		c-1.359-0.961-2.892-1.77-3.424-1.771c-0.001,0-0.001,0-0.001,0c-0.002,0-0.003,0-0.003,0c-0.533-0.001-1.711-0.405-2.537-0.96
		c-0.885-0.506-4.782-2.275-8.68-3.943c-8.03-3.386-9.742-4.246-9.744-4.854c0-0.253-0.769-0.962-1.655-1.62
		c-0.887-0.658-2.01-1.722-2.423-2.431c-0.897-1.458-2.198-2.188-3.801-2.19c-0.513-0.001-1.058,0.073-1.631,0.22
		c-1.12,0.306-5.189,0.819-9.083,1.129c-3.894,0.36-8.141,0.923-9.439,1.331c-1.297,0.356-4.424,0.716-6.9,0.719
		c-2.479,0.004-4.661,0.209-4.837,0.463c-0.178,0.254-1.533,0.611-3.009,0.766c-0.647,0.086-1.164,0.136-1.621,0.136
		c-1.166-0.002-1.944-0.336-3.513-1.245c-2.952-1.669-9.211-3.892-12.633-4.445c-1.241-0.2-2.834-0.655-3.484-1.008
		c-0.647-0.403-1.704-0.706-2.354-0.707c-0.003,0-0.005,0-0.008,0c-0.005,0-0.01,0-0.015,0c-0.986-0.001-0.802-0.311,1.074-1.827
		c1.768-1.473,2.178-2.133,2.176-3.755c-0.002-1.065-0.24-2.079-0.535-2.23c-0.296-0.203-0.947-1.368-1.48-2.686
		c-0.888-2.183-0.944-2.366,0.261-3.464h0.003c2.447,0.731,4.716,1.118,6.396,1.121c1.128,0.002,1.99-0.17,2.46-0.527
		c0.349-0.274,0.668-0.683,0.696-0.88c0.092-0.634-0.789-2.038-2.835-4.498c-0.938-1.125-2.143-2.633-2.922-3.623h-0.005
		c0.091-0.453,0.209-0.947,0.345-1.42c0.528-1.978,0.409-2.484-1.189-5.373c-0.789-1.414-2.028-3.012-3.313-4.395h-0.004
		c-0.086-0.442-0.15-0.836-0.181-1.127c-0.528-5.45-3.279-10.161-7.937-13.478c-1.542-1.12-5.202-2.955-6.785-3.435
		c-0.865-0.27-1.342-0.542-1.564-0.966c-0.395-0.664-2.306-1.733-5.574-3.06c-2.244-0.904-3.411-1.271-4.329-1.273
		c-0.309-0.001-0.59,0.041-0.875,0.116c-0.266,0.069-0.541,0.104-0.897,0.104c-0.615-0.001-1.472-0.11-2.942-0.338
		C77.337,0.105,76.572,0.001,76.008,0z M148.498,390.62c0.032,0.005,0.067,0.094,0.106,0.276c0.238,1.268,0.772,3.091,1.128,4.055
		c0.357,1.014,0.659,4.968,0.608,9.126c0.01,5.542-0.314,8.788-0.731,8.786c-0.193,0-0.407-0.699-0.615-2.193
		c-0.556-3.771-0.93-19.996-0.501-20.05H148.498z M191.617,104.44c2.42,0.005,4.15,0.386,6.138,1.187
		c1.651,0.707,3.477,1.26,4.012,1.262h0.001c0.002,0,0.002,0,0.003,0c0.533,0.001,2.007,0.455,3.302,0.959
		c1.299,0.556,3.306,1.11,4.547,1.312c2.243,0.352,7.5,4.097,7.502,5.364c0.001,0.304-0.528,1.116-1.176,1.827
		c-0.824,0.914-1.176,2.081-1.173,4.007c0.003,2.13-0.289,2.941-1.409,4.008c-0.766,0.711-1.53,1.827-1.706,2.436
		c-1.407,5.072-2.168,8.47-2.165,9.839c0.002,0.862-0.292,1.673-0.646,1.775c-0.59,0.152-1.236,1.877-2.289,6.341
		c-0.292,1.217-1.056,3.094-1.762,4.312c-0.646,1.167-1.174,2.537-1.174,3.044c0.001,0.507-0.234,0.913-0.528,0.914
		c-0.532,0-1.236,2.231-1.467,5.021c-0.151,1.656-1.189,2.497-2.671,2.494c-1.333-0.002-3.027-0.688-4.763-2.078
		c-1.121-0.912-3.012-1.974-4.133-2.328c-2.598-0.908-3.543-1.87-3.548-3.695c0-0.761-0.238-1.418-0.531-1.419h-0.002l0,0
		c-0.295,0-0.709-0.862-1.006-1.925c-0.595-2.433-0.724-41.018-0.138-42.793c0.292-1.065,0.824-1.42,2.357-1.575
		C188.938,104.536,190.368,104.438,191.617,104.44z M19.914,66.429C19.915,66.429,19.915,66.429,19.914,66.429l0.072,0
		c3.685,0.106,6.811,1.279,9.378,3.516c0.954,0.879,1.725,1.82,2.313,2.821h-0.003c0.667,1.576,0.865,2.567,1.065,4.387
		c0.153,1.212,0.068,2.596-0.196,3.995h-0.003c-0.634,1.847-1.815,3.515-3.545,5.006c-2.683,2.138-5.818,3.205-9.408,3.198
		c-0.014,0-0.027,0-0.042,0c-3.686-0.099-6.815-1.264-9.39-3.497c-2.499-2.291-3.746-4.999-3.744-8.126
		c0.078-3.107,1.433-5.802,4.067-8.083C13.162,67.496,16.309,66.423,19.914,66.429z M79.624,1.934c0.077,0,0.156,0.003,0.238,0.008
		c0.257,0.006,0.397,0.109,0.304,0.21c-0.124,0.129-0.607,0.211-0.984,0.211c-0.27,0-0.485-0.043-0.471-0.144
		C78.736,2.048,79.121,1.932,79.624,1.934z"/>
</g>
</svg>
